<?xml version="1.0" standalone="no"?>
<!DOCTYPE svg PUBLIC "-//W3C//DTD SVG 20010904//EN"
 "http://www.w3.org/TR/2001/REC-SVG-20010904/DTD/svg10.dtd">
<svg version="1.0" xmlns="http://www.w3.org/2000/svg"
 width="512.000000pt" height="512.000000pt" viewBox="0 0 512.000000 512.000000"
 preserveAspectRatio="xMidYMid meet">
<metadata>
Created by potrace 1.14, written by Peter Selinger 2001-2017
</metadata>
<g transform="translate(0.000000,512.000000) scale(0.100000,-0.100000)"
fill="#000000" stroke="none">
<path d="M1447 4884 c-1 -1 -38 -5 -82 -9 -165 -14 -367 -71 -518 -146 -411
-204 -698 -570 -803 -1024 -23 -100 -26 -132 -29 -300 -3 -150 0 -187 31 -340
22 -112 73 -251 139 -378 100 -192 106 -198 1273 -1366 l1103 -1105 1075 1075
c592 591 1102 1106 1133 1144 74 89 141 194 193 298 22 45 41 86 43 92 1 5 7
24 14 40 15 35 59 186 66 223 2 14 7 46 11 71 3 25 8 57 10 71 6 36 6 282 0
322 -3 18 -8 51 -11 73 -16 115 -89 341 -143 439 -27 51 -86 150 -94 161 -4 6
-29 38 -54 73 -47 64 -160 182 -230 240 -302 250 -703 374 -1093 338 -326 -31
-663 -182 -884 -398 -16 -16 -32 -28 -35 -28 -4 1 -34 26 -67 56 -71 66 -220
167 -325 219 -171 86 -339 133 -536 151 -67 6 -184 11 -187 8z"/>
</g>
</svg>
